<svg xmlns="http://www.w3.org/2000/svg" xmlns:xlink="http://www.w3.org/1999/xlink" width="18" height="18" viewBox="0 0 18 18"><defs><clipPath id="a"><rect width="18" height="18" fill="none" stroke="#ccab84" stroke-width="1"/></clipPath></defs><g clip-path="url(#a)"><rect width="17.053" height="17.053" rx="1.161" transform="translate(0.474 0.473)" fill="none" stroke="#ccab84" stroke-linecap="round" stroke-linejoin="round" stroke-width="1"/><rect width="12.652" height="3.026" transform="translate(2.673 2.674)" fill="#ccab84" stroke="#ccab84" stroke-linecap="round" stroke-linejoin="round" stroke-width="1"/><rect width="12.652" height="7.701" transform="translate(2.673 7.624)" fill="none" stroke="#ccab84" stroke-linecap="round" stroke-linejoin="round" stroke-width="1"/><line y2="7.701" transform="translate(9 7.625)" fill="none" stroke="#ccab84" stroke-linecap="round" stroke-linejoin="round" stroke-width="1"/><line y2="7.701" transform="translate(2.674 7.625)" fill="none" stroke="#ccab84" stroke-linecap="round" stroke-linejoin="round" stroke-width="1"/><line x2="12.652" transform="translate(2.674 11.475)" fill="none" stroke="#ccab84" stroke-linecap="round" stroke-linejoin="round" stroke-width="1"/><line y2="1.65" transform="translate(5.547 12.576)" fill="none" stroke="#ccab84" stroke-linecap="round" stroke-linejoin="round" stroke-width="1"/><line x2="1.65" transform="translate(4.722 13.401)" fill="none" stroke="#ccab84" stroke-linecap="round" stroke-linejoin="round" stroke-width="1"/><line x2="1.65" transform="translate(11.414 13.401)" fill="none" stroke="#ccab84" stroke-linecap="round" stroke-linejoin="round" stroke-width="1"/><line x2="1.649" y2="1.649" transform="translate(4.723 8.725)" fill="none" stroke="#ccab84" stroke-linecap="round" stroke-linejoin="round" stroke-width="1"/><line y1="1.65" x2="1.65" transform="translate(4.722 8.725)" fill="none" stroke="#ccab84" stroke-linecap="round" stroke-linejoin="round" stroke-width="1"/><line x2="1.65" transform="translate(11.414 9.55)" fill="none" stroke="#ccab84" stroke-linecap="round" stroke-linejoin="round" stroke-width="1"/><path d="M13.179,9.195A.275.275,0,1,1,12.9,8.92a.275.275,0,0,1,.275.275" transform="translate(-0.665 -0.469)" fill="#ccab84"/><path d="M13.179,10.937a.275.275,0,1,1-.275-.275.275.275,0,0,1,.275.275" transform="translate(-0.665 -0.561)" fill="#ccab84"/></g></svg>