<svg xmlns="http://www.w3.org/2000/svg" xmlns:xlink="http://www.w3.org/1999/xlink" width="18" height="18" viewBox="0 0 18 18"><defs><clipPath id="a"><rect width="18" height="18" fill="none" stroke="#4285f4" stroke-width="1"/></clipPath></defs><g clip-path="url(#a)"><line x2="1.677" transform="translate(0.474 13.676)" fill="none" stroke="#4285f4" stroke-linecap="round" stroke-linejoin="round" stroke-width="1"/><line x2="1.677" transform="translate(0.474 9)" fill="none" stroke="#4285f4" stroke-linecap="round" stroke-linejoin="round" stroke-width="1"/><line x2="1.677" transform="translate(0.474 4.324)" fill="none" stroke="#4285f4" stroke-linecap="round" stroke-linejoin="round" stroke-width="1"/><line y2="2.475" transform="translate(1.312 5.424)" fill="none" stroke="#4285f4" stroke-linecap="round" stroke-linejoin="round" stroke-width="1"/><line y2="2.475" transform="translate(1.312 10.1)" fill="none" stroke="#4285f4" stroke-linecap="round" stroke-linejoin="round" stroke-width="1"/><path d="M17.91,8.965a.555.555,0,0,0,.559-.55V6.92a.555.555,0,0,0-.559-.55" transform="translate(-0.943 -0.335)" fill="none" stroke="#4285f4" stroke-linecap="round" stroke-linejoin="round" stroke-width="1"/><path d="M17.91,4.66a.555.555,0,0,0,.559-.55V2.615a.555.555,0,0,0-.559-.55" transform="translate(-0.943 -0.109)" fill="none" stroke="#4285f4" stroke-linecap="round" stroke-linejoin="round" stroke-width="1"/><line y1="11.552" transform="translate(3.549 3.224)" fill="none" stroke="#4285f4" stroke-linecap="round" stroke-linejoin="round" stroke-width="1"/><path d="M1.385,3.25V1.6A1.109,1.109,0,0,1,2.5.5H14.8a1.109,1.109,0,0,1,1.118,1.1V16.452a1.109,1.109,0,0,1-1.118,1.1H2.5a1.109,1.109,0,0,1-1.118-1.1V14.8" transform="translate(-0.073 -0.026)" fill="none" stroke="#4285f4" stroke-linecap="round" stroke-linejoin="round" stroke-width="1"/><path d="M13.655,13.106a5.194,5.194,0,0,1-1.957-.824c-.223-.261,0-1.377,0-1.377a1.739,1.739,0,0,0,.56-1.1c.107-.455.32-1.469.373-1.934a3.8,3.8,0,0,0-.024-1.142,2.407,2.407,0,0,0-2.586-1.877A2.493,2.493,0,0,0,7.359,6.731a3.791,3.791,0,0,0-.025,1.142c.053.464.344,1.479.449,1.934a1.753,1.753,0,0,0,.559,1.1s.222,1.115,0,1.377a6.154,6.154,0,0,1-2.236.824" transform="translate(-0.321 -0.255)" fill="none" stroke="#4285f4" stroke-linecap="round" stroke-linejoin="round" stroke-width="1"/></g></svg>