<svg xmlns="http://www.w3.org/2000/svg" width="19" height="19" viewBox="0 0 19 19"><g transform="translate(-16.974 -492.979)"><path d="M17.861,2.151a.639.639,0,0,0,.639-.639V.5H3.47a2.969,2.969,0,1,0,0,5.938H18.5V5.427a.639.639,0,0,0-.639-.639" transform="translate(16.974 492.979)" fill="none" stroke="#4285f4" stroke-linecap="round" stroke-linejoin="round" stroke-width="1"/><path d="M.5,3.469V16.081A2.736,2.736,0,0,0,3.469,18.5H18.5V5.888" transform="translate(16.974 492.979)" fill="none" stroke="#4285f4" stroke-linecap="round" stroke-linejoin="round" stroke-width="1"/><path d="M17.7,2.151V4.788" transform="translate(17.016 492.979)" fill="none" stroke="#4285f4" stroke-linecap="round" stroke-linejoin="round" stroke-width="1"/><path d="M5.47,18.26l1.525-4.551L8.519,18.26" transform="translate(17.03 489.469)" fill="none" stroke="#4285f4" stroke-linecap="round" stroke-linejoin="round" stroke-width="1"/><line x2="2.186" transform="translate(22.914 506.495)" fill="none" stroke="#4285f4" stroke-linecap="round" stroke-linejoin="round" stroke-width="1"/><path d="M10.856,13.709H13.57L10.606,18.26H13.32" transform="translate(17.086 489.469)" fill="none" stroke="#4285f4" stroke-linecap="round" stroke-linejoin="round" stroke-width="1"/><line x2="13.364" transform="translate(19.549 496.448)" fill="none" stroke="#4285f4" stroke-linecap="round" stroke-linejoin="round" stroke-width="1"/></g></svg>