<svg xmlns="http://www.w3.org/2000/svg" xmlns:xlink="http://www.w3.org/1999/xlink" width="18" height="18" viewBox="0 0 18 18"><defs><clipPath id="a"><rect width="18" height="18" fill="none" stroke="#ccab84" stroke-width="1"/></clipPath></defs><g clip-path="url(#a)"><path d="M17.05,16.389l-4.113.661H.927L.336,15.034l.208-4.792H17.05Z" transform="translate(0.138)" fill="#ccab84" stroke="#ccab84" stroke-width="1"/><path d="M16.377.5H11.351a.558.558,0,0,0-.442.233L9.2,3a.558.558,0,0,1-.442.233H1.677A1.281,1.281,0,0,0,.5,4.593v11.6a1.281,1.281,0,0,0,1.177,1.364h14.7a1.28,1.28,0,0,0,1.176-1.364V1.864A1.28,1.28,0,0,0,16.377.5Z" transform="translate(-0.026 -0.026)" fill="none" stroke="#ccab84" stroke-linecap="round" stroke-miterlimit="10" stroke-width="1"/><line x2="17.053" transform="translate(0.474 10.364)" fill="none" stroke="#ccab84" stroke-linecap="round" stroke-miterlimit="10" stroke-width="1"/><line x2="7.644" transform="translate(5.178 15.139)" fill="none" stroke="#fff" stroke-linecap="round" stroke-miterlimit="10" stroke-width="1"/><line x2="7.644" transform="translate(5.178 13.093)" fill="none" stroke="#fff" stroke-linecap="round" stroke-miterlimit="10" stroke-width="1"/><path d="M2.983,9.311V6.582A.64.64,0,0,1,3.571,5.9H14.744a.639.639,0,0,1,.587.682V8.032" transform="translate(-0.157 -0.311)" fill="none" stroke="#ccab84" stroke-linecap="round" stroke-miterlimit="10" stroke-width="1"/></g></svg>