<svg xmlns="http://www.w3.org/2000/svg" width="19.251" height="19.187" viewBox="0 0 19.251 19.187"><g transform="translate(-5911.763 -368.974)"><path d="M.5,14.085l1.651-1.1,2.753,4.4-1.375.824" transform="translate(5911.957 369.26)" fill="none" stroke="#ccab84" stroke-linecap="round" stroke-linejoin="round" stroke-width="1"/><path d="M7.77,13.444h3.3a1.1,1.1,0,0,0,0-2.2H6.618a1.652,1.652,0,0,0-.916.279L2.667,13.543" transform="translate(5911.845 369.061)" fill="none" stroke="#ccab84" stroke-linecap="round" stroke-linejoin="round" stroke-width="1"/><path d="M11.56,13.395l4.714-1.771a1.1,1.1,0,1,1,.842,2.035l-4.862,2.061a2.755,2.755,0,0,1-1.074.218H6.893a1.654,1.654,0,0,0-.908.272l-1.1.721" transform="translate(5912.661 369.335)" fill="none" stroke="#ccab84" stroke-linecap="round" stroke-linejoin="round" stroke-width="1"/><path d="M6.762,9.586a5.781,5.781,0,1,1,9.286.275" transform="translate(5912.618 368.974)" fill="none" stroke="#ccab84" stroke-linecap="round" stroke-linejoin="round" stroke-width="1"/><path d="M10.081,8.114a1.466,1.466,0,0,0,1.238.826h.826a1.239,1.239,0,1,0,0-2.478h-.826a1.239,1.239,0,0,1,0-2.478h.826a1.468,1.468,0,0,1,1.239.826" transform="translate(5912.076 368.446)" fill="none" stroke="#ccab84" stroke-linecap="round" stroke-linejoin="round" stroke-width="1"/><line y2="0.826" transform="translate(5923.78 371.392)" fill="none" stroke="#ccab84" stroke-linecap="round" stroke-linejoin="round" stroke-width="1"/><line y2="0.826" transform="translate(5923.78 377.615)" fill="none" stroke="#ccab84" stroke-linecap="round" stroke-linejoin="round" stroke-width="1"/><path d="M5916.86,386.515l-2.35-4.037,3.625-2.2h5.191l.6.439v1.126l.247.632,5.246-1.758.714.439.248.687v.8l-6.207,2.664H5918.6l-.988.769Z" fill="#ccab84"/></g></svg>