<svg xmlns="http://www.w3.org/2000/svg" xmlns:xlink="http://www.w3.org/1999/xlink" width="18" height="18" viewBox="0 0 18 18"><defs><clipPath id="a"><rect width="18" height="18" fill="none" stroke="#4285f4" stroke-width="1"/></clipPath></defs><g transform="translate(0 0)"><g transform="translate(0 0)" clip-path="url(#a)"><path d="M3.163,11.086a5.732,5.732,0,0,1-.207-.684L.634,10.044v-2.2l2.32-.358a6.231,6.231,0,0,1,.764-1.844L2.332,3.752,3.889,2.2,5.784,3.578a6.246,6.246,0,0,1,1.85-.762L7.851.5h2.487l.219,2.316a6.3,6.3,0,0,1,1.846.762L14.3,2.193l1.561,1.555L14.469,5.639a6.215,6.215,0,0,1,.764,1.841l2.325.358,0,2.2-2.327.36a6.151,6.151,0,0,1-.764,1.839l1.392,1.893L14.3,15.686,12.4,14.3a6.233,6.233,0,0,1-1.842.76h0L10.2,17.38l-2.347,0-.221-2.321a6.249,6.249,0,0,1-.794-.244" transform="translate(-0.033 -0.028)" fill="none" stroke="#4285f4" stroke-linecap="round" stroke-linejoin="round" stroke-width="1"/><path d="M6.1,10.47a3.327,3.327,0,0,1-.136-.4,3.3,3.3,0,0,1,4.443-3.9L8.366,8.212l1.8,1.8L12.21,7.971A3.3,3.3,0,0,1,8.3,12.4a3.461,3.461,0,0,1-.4-.135L2.55,17.607a.849.849,0,0,1-1.2,0L.748,17a.842.842,0,0,1,0-1.193Z" transform="translate(-0.026 -0.327)" fill="none" stroke="#4285f4" stroke-linecap="round" stroke-linejoin="round" stroke-width="1"/></g></g></svg>