<svg xmlns="http://www.w3.org/2000/svg" width="381.301" height="329.247" viewBox="0 0 381.301 329.247"><g transform="translate(-866 -217.753)"><path d="M330.766,102.39c-4.359-8.543-8.03-17.354-9.605-27C318.3,57.9,322.79,39.053,316.452,22.118,309.223,2.8,292.028-2.171,273.065.791c-24.425,3.817-47.152,16.172-70.38,24.946-16.638,6.291-34.786,9.992-52.592,7.283-21.8-3.308-44.262-11.252-66.279-4.9C49.109,38.137,36.777,73.515,42.959,106.55c4.311,23.037,20.831,41.218,33.14,60.369,9.261,14.414,15.413,29.513,15.478,46.8.059,15.543-4.256,34.444,8.212,45.755,20.985,19.036,44.421,15.047,66.47,3.6,3.214-1.665,6.343-3.453,9.361-5.214,25.365-12.982,53.765-32.292,83.127-19.429,3.066,1.256,6.2,2.444,9.372,3.516,28.549,9.55,60.3,8.739,78.373-19.632,13.987-21.96,12.377-50.757,5.814-74.993C347.938,131.189,338.329,117.189,330.766,102.39Z" transform="translate(832.234 217.754)" fill="#4285f4" opacity="0.1"/><path d="M226.229,213.49H476.766a7.969,7.969,0,0,1,7.969,7.969V407.517a7.969,7.969,0,0,1-7.969,7.969H226.229a7.969,7.969,0,0,1-7.969-7.969V221.458A7.968,7.968,0,0,1,226.229,213.49Z" transform="translate(688.122 43.766)" fill="#fff"/><path d="M474.632,211.827a7.487,7.487,0,0,1,7.479,7.479V405.365a7.488,7.488,0,0,1-7.479,7.479H224.086a7.488,7.488,0,0,1-7.479-7.479V219.306a7.486,7.486,0,0,1,7.479-7.479H474.632m0-.977H224.086a8.456,8.456,0,0,0-8.456,8.456V405.365a8.456,8.456,0,0,0,8.456,8.456H474.632a8.456,8.456,0,0,0,8.456-8.456V219.306A8.456,8.456,0,0,0,474.632,210.85Z" transform="translate(690.265 45.918)" fill="#d9e7fd"/><path d="M224.086,210.85H474.623a8.458,8.458,0,0,1,8.458,8.458v11.533H215.63V219.306a8.458,8.458,0,0,1,8.454-8.456Z" transform="translate(690.265 45.918)" fill="#4285f4"/><circle cx="2.82" cy="2.82" r="2.82" transform="translate(1108.316 269.623) rotate(-76.72)" fill="#0a49ae"/><circle cx="2.82" cy="2.82" r="2.82" transform="translate(1126.375 267.531) rotate(-45)" fill="#0a49ae"/><circle cx="2.82" cy="2.82" r="2.82" transform="translate(1145.021 267.53) rotate(-45)" fill="#0a49ae"/><rect width="126.301" height="40.619" rx="11.08" transform="translate(1096.805 396.428) rotate(180)" fill="#4285f4"/><rect width="188.178" height="10" rx="5" transform="translate(1158.684 303) rotate(180)" fill="#4285f4" opacity="0.2"/><path d="M609.921,506.04v35.038c0,.82-.453,1.48-1.014,1.48H567.326c-.555,0-1.016-.662-1.016-1.48V506.04c0-.82.455-1.48,1.016-1.48h41.587C609.473,504.558,609.921,505.221,609.921,506.04Z" transform="translate(404.473 -193.446)" fill="#0a49ae" opacity="0.1"/><rect width="38.119" height="37.995" rx="7.93" transform="translate(1017.203 311.116)" fill="#4285f4" opacity="0.2"/><rect width="38.119" height="37.995" rx="7.93" transform="translate(1059.184 311.116)" fill="#4285f4" opacity="0.2"/><rect width="115.249" height="0.37" transform="translate(976.04 362.461)" fill="#8db8ff" opacity="0.3"/><rect width="115.249" height="0.37" transform="translate(976.04 369.594)" fill="#8db8ff" opacity="0.3"/><rect width="115.249" height="0.37" transform="translate(976.04 376.728)" fill="#8db8ff" opacity="0.3"/><rect width="115.249" height="0.37" transform="translate(976.04 383.86)" fill="#8db8ff" opacity="0.3"/><rect width="115.249" height="0.37" transform="translate(976.04 390.993)" fill="#8db8ff" opacity="0.3"/><path d="M623.348,801.878a11.9,11.9,0,0,1-8.948-3.771l.616-.509a11.605,11.605,0,0,0,10.438,3.318c3.288-.5,5.6-3.678,8.056-7.044,2.835-3.884,5.764-7.906,10.48-7.906,4.354,0,6.554,2.274,8.684,4.472,2.193,2.265,4.256,4.406,8.63,4.406,4.176,0,7.3-3.712,10.6-7.642,3.516-4.191,7.163-8.525,12.41-8.525a13.506,13.506,0,0,1,9.47,3.37,12.992,12.992,0,0,0,9.239,3.266c9.753,0,16.316-11.729,16.383-11.842l.7.385c-.274.5-6.856,12.26-17.082,12.26a13.815,13.815,0,0,1-9.722-3.427,12.68,12.68,0,0,0-8.987-3.207c-4.876,0-8.4,4.189-11.8,8.24-3.273,3.9-6.661,7.925-11.208,7.925-4.7,0-6.992-2.363-9.205-4.648-2.106-2.174-4.093-4.228-8.108-4.228-4.311,0-7.118,3.854-9.836,7.586-2.441,3.351-4.963,6.815-8.58,7.364a14.862,14.862,0,0,1-2.226.157Z" transform="translate(365.281 -412.599)" fill="#c0d8ff"/><path d="M357.239,414h-19.9c-1.936,0-3.5-2.241-3.5-5.005h0c0-2.76,1.572-4.995,3.5-4.995h19.9c1.935,0,3.5,2.241,3.5,5.005h0C360.739,411.765,359.171,414,357.239,414Z" transform="translate(593.937 -111)" fill="#4285f4" opacity="0.2"/><rect width="19.875" height="2.757" rx="1.379" transform="translate(931.286 318.804)" fill="#4285f4" opacity="0.1"/><path d="M371.346,621.347H354.228a1.377,1.377,0,0,1-1.379-1.379h0a1.379,1.379,0,0,1,1.379-1.378h17.118a1.379,1.379,0,0,1,1.379,1.378h0a1.377,1.377,0,0,1-1.379,1.379Z" transform="translate(578.436 -286.377)" fill="#4285f4" opacity="0.1"/><path d="M371.346,693.857H354.228a1.377,1.377,0,0,1-1.379-1.378h0a1.379,1.379,0,0,1,1.379-1.379h17.118a1.379,1.379,0,0,1,1.379,1.379h0a1.377,1.377,0,0,1-1.379,1.379Z" transform="translate(578.436 -345.47)" fill="#4285f4" opacity="0.1"/><path d="M371.346,766.287H354.228a1.377,1.377,0,0,1-1.379-1.379h0a1.379,1.379,0,0,1,1.379-1.379h17.118a1.379,1.379,0,0,1,1.379,1.379h0a1.377,1.377,0,0,1-1.379,1.379Z" transform="translate(578.436 -404.498)" fill="#4285f4" opacity="0.1"/><path d="M371.346,838.757H354.228a1.377,1.377,0,0,1-1.379-1.379h0A1.379,1.379,0,0,1,354.228,836h17.118a1.379,1.379,0,0,1,1.379,1.378h0a1.377,1.377,0,0,1-1.379,1.379Z" transform="translate(578.436 -463.559)" fill="#4285f4" opacity="0.1"/><rect width="60.948" height="41.572" rx="10.49" transform="translate(1105.057 355.332)" fill="#4285f4" opacity="0.2"/><rect width="60.948" height="41.572" rx="10.49" transform="translate(1105.057 401.807)" fill="#4285f4" opacity="0.2"/><path d="M1415.416,850.66H1395.14a1.53,1.53,0,0,1-1.53-1.53h0a1.53,1.53,0,0,1,1.53-1.53h20.276a1.532,1.532,0,0,1,1.532,1.53h0A1.532,1.532,0,0,1,1415.416,850.66Z" transform="translate(-269.748 -473.012)" fill="#0a49ae"/><path d="M1415.416,1101.82H1395.14a1.53,1.53,0,0,1-1.53-1.53h0a1.53,1.53,0,0,1,1.53-1.53h20.276a1.532,1.532,0,0,1,1.532,1.53h0A1.532,1.532,0,0,1,1415.416,1101.82Z" transform="translate(-269.748 -677.698)" fill="#0a49ae"/><rect width="135.234" height="43.49" rx="11.86" transform="translate(1087.207 445.774) rotate(180)" fill="#4285f4" opacity="0.22"/><path d="M585,1039.24a13.408,13.408,0,0,1,9.479,22.9l-9.479-9.49Z" transform="translate(389.241 -629.191)" fill="#4285f4"/><path d="M522.885,1046.074a13.417,13.417,0,0,0-6.885,5.159l11.056,7.586V1045.41A13.276,13.276,0,0,0,522.885,1046.074Z" transform="translate(445.474 -634.22)" fill="#fff"/><path d="M516.653,1084.466,505.6,1076.88a13.408,13.408,0,0,0,20.539,17.068Z" transform="translate(455.877 -659.867)" fill="#0a49ae"/><path d="M761.712,1065.644H748.926a.888.888,0,0,1-.886-.886h0a.888.888,0,0,1,.886-.888h12.786a.888.888,0,0,1,.886.888h0A.888.888,0,0,1,761.712,1065.644Z" transform="translate(256.369 -649.265)" fill="#4285f4"/><path d="M913.926,1065.644H864.336a.888.888,0,0,1-.886-.886h0a.888.888,0,0,1,.886-.888h49.589a.888.888,0,0,1,.888.888h0A.888.888,0,0,1,913.926,1065.644Z" transform="translate(162.314 -649.265)" fill="#fff"/><path d="M761.712,1111.774H748.926a.888.888,0,0,1-.886-.886h0a.888.888,0,0,1,.886-.888h12.786a.888.888,0,0,1,.886.888h0A.888.888,0,0,1,761.712,1111.774Z" transform="translate(256.369 -686.858)" fill="#4285f4"/><path d="M913.926,1111.774H864.336a.888.888,0,0,1-.886-.886h0a.888.888,0,0,1,.886-.888h49.589a.888.888,0,0,1,.888.888h0A.888.888,0,0,1,913.926,1111.774Z" transform="translate(162.314 -686.858)" fill="#fff"/><path d="M761.712,1157.9H748.926a.888.888,0,0,1-.886-.888h0a.888.888,0,0,1,.886-.886h12.786a.888.888,0,0,1,.886.886h0A.888.888,0,0,1,761.712,1157.9Z" transform="translate(256.369 -724.453)" fill="#4285f4"/><path d="M913.926,1157.9H864.336a.888.888,0,0,1-.886-.888h0a.888.888,0,0,1,.886-.886h49.589a.888.888,0,0,1,.888.886h0A.888.888,0,0,1,913.926,1157.9Z" transform="translate(162.314 -724.453)" fill="#fff"/><path d="M643.177,559.56v-2.62a9.307,9.307,0,0,0,0,18.615v-2.62a6.687,6.687,0,0,1,0-13.374Z" transform="translate(349.414 -236.134)" fill="#fff"/><path d="M693.477,566.245a9.309,9.309,0,0,1-9.307,9.309v-2.62a6.687,6.687,0,1,0,0-13.374v-2.62a9.306,9.306,0,0,1,9.307,9.307Z" transform="translate(308.421 -236.134)" fill="#0a49ae"/><path d="M885.883,566.245a6.687,6.687,0,1,1-6.687-6.685v-2.62a9.307,9.307,0,1,0,9.309,9.307Z" transform="translate(157.066 -236.134)" fill="#fff"/><path d="M929.489,566.245h-2.622a6.685,6.685,0,0,0-6.687-6.685v-2.62a9.308,9.308,0,0,1,9.309,9.307Z" transform="translate(116.081 -236.134)" fill="#4285f4"/><path d="M1106.067,556.94v2.62a6.687,6.687,0,1,1-6.687,6.687h-2.62a9.307,9.307,0,1,0,9.307-9.305Z" transform="translate(-27.825 -236.134)" fill="#4285f4"/><path d="M1106.067,556.94v2.62a6.687,6.687,0,0,0-6.687,6.685h-2.62a9.307,9.307,0,0,1,9.305-9.305Z" transform="translate(-27.825 -236.134)" fill="#fff"/><ellipse cx="56.595" cy="4.012" rx="56.595" ry="4.012" transform="translate(1134.111 538.977)" fill="#4285f4" opacity="0.05"/><ellipse cx="38.273" cy="2.713" rx="38.273" ry="2.713" transform="translate(869.127 540.275)" fill="#d6d6d6"/><path d="M1655.5,1350.387c11.156-9.144,16.028,50.067,14.5,65.415s-5.936-.133-11-23.953S1651.113,1353.979,1655.5,1350.387Z" transform="translate(-481.411 -881.988)" fill="#edac98"/><path d="M1697.665,1717.6l.344,3.66-8.641,3.123-6.188-1.641,3.5-1.271s2.307-1.1,2.59-2.42S1697.665,1717.6,1697.665,1717.6Z" transform="translate(-505.738 -1182.032)" fill="#ffd4d4"/><path d="M1680.307,1726.22s-6.193,6.106-11.18,2.276c0,0-7.544,1.319-7.488,3.6s5.181,1.578,5.181,1.578l14.037-.529A15.11,15.11,0,0,0,1680.307,1726.22Z" transform="translate(-488.182 -1189.057)" fill="#2a2a2a"/><path d="M1820.313,1343.206c12.447-7.288,8,51.958,4.093,66.877s-5.842-1.06-7.12-25.376S1815.415,1346.074,1820.313,1343.206Z" transform="translate(-614.297 -876.41)" fill="#edac98"/><path d="M1809.435,1719.742l-.426,3.092-8.806,2.62-6.084-1.991,3.569-1.07s2.366-.966,2.729-2.269S1809.435,1719.742,1809.435,1719.742Z" transform="translate(-596.15 -1183.521)" fill="#ffd4d4"/><path d="M1791.237,1726.7s-6.907,5.736-11.668,1.626c0,0-7.607.888-7.682,3.171s5.088,1.871,5.088,1.871l14.044.272A12.375,12.375,0,0,0,1791.237,1726.7Z" transform="translate(-578.03 -1189.448)" fill="#2a2a2a"/><path d="M1702.029,777.184a5.188,5.188,0,0,1-4.441,3.181c-8.7.818-43.464,4.811-44.428-1.562-1.132-7.488,30.49-8.882,38.019-8.068C1697.455,771.418,1703.687,772.758,1702.029,777.184Z" transform="translate(-481.248 -410.202)" fill="#edac98"/><path d="M1619.6,710.519l-6.726.031-8.1-15.43-7.969,2.422s6.376,19.7,9.437,22.637,16.96-.638,16.9-.829S1619.6,710.519,1619.6,710.519Z" transform="translate(-435.349 -348.746)" fill="#ffd4d4"/><path d="M1584.729,630.22a5.454,5.454,0,0,1-4.128-3.371c-3.477-8.1-15.646-37.061-13.03-39.831,3.046-3.223,22.622,37.932,21.39,39.947C1588.035,628.469,1587.28,630.568,1584.729,630.22Z" transform="translate(-411.222 -260.5)" fill="#ffd4d4"/><path d="M1548.424,565.86l.413-.439h0v-.009l-.259-2.42a3.818,3.818,0,0,0-.637-1.726l-2.059-1.837s-.849.039.02,1.347a3.04,3.04,0,0,1,.233,1.528l-1.023-1.168-2.722-2.672a2.236,2.236,0,0,0-2.946-.2,2.808,2.808,0,0,0-.4,2.9l.772,2.454c.622,1.2.879,2.244,1.919,3.109l3.029,2.108Z" transform="translate(-388.081 -236.833)" fill="#edac98"/><path d="M1718.715,773.62a.322.322,0,0,0-.305.322c0,2.1.07,14.353.157,14.618s13.3,1.147,13.3,1.147L1729.471,773Z" transform="translate(-534.449 -412.215)" fill="#4285f4"/><rect width="60.948" height="41.572" rx="10.49" transform="translate(1116.066 307.471)" fill="#02008a"/><rect width="23.338" height="3.06" rx="1.53" transform="translate(1134.872 326.726)" fill="#fff"/><path d="M1588.272,810.281a5.189,5.189,0,0,1-3.377,4.287c-8.131,3.2-40.419,16.694-43.113,10.843-3.168-6.878,26.83-17.008,34.281-18.318C1582.277,806.013,1588.631,805.574,1588.272,810.281Z" transform="translate(-390.313 -439.424)" fill="#edac98"/><path d="M1738.239,639.671v-5.61s-5.181-.37-6.267-4.737-1.238-15.01,1.458-18.727,19.31-2.842,20.4,8.308-1.02,24.191-1.02,24.191Z" transform="translate(-544.904 -278.252)" fill="#ffd4d4"/><path d="M1446.869,735.946a5.461,5.461,0,0,1-4.654-2.591c-4.837-7.372-21.878-33.763-19.786-36.948,2.435-3.7,28.9,33.4,28.036,35.6C1449.82,733.648,1449.443,735.845,1446.869,735.946Z" transform="translate(-293.091 -349.584)" fill="#ffd4d4"/><path d="M1464.724,738.593l-9.252,3.762-22.132-26.595-4.071,3.416s18.779,33.821,23.079,35.168,16.994-3.826,16.994-3.826Z" transform="translate(-298.81 -365.566)" fill="#ffd4d4"/><path d="M1406.683,682.668l.418-.446h0l-.257-2.42a3.8,3.8,0,0,0-.638-1.726l-2.057-1.837s-.849.039.018,1.347a3.02,3.02,0,0,1,.235,1.528l-1.025-1.168-2.72-2.672a2.236,2.236,0,0,0-2.946-.2,2.811,2.811,0,0,0-.4,2.9l.772,2.454c.622,1.2.879,2.244,1.919,3.109l3.031,2.108Z" transform="translate(-272.572 -332.029)" fill="#ffd4d4"/><path d="M1679.643,1032.493c-4.794,19.244-11.959,34.046-16,33.032s-3.432-17.428,1.362-36.679,11.959-34.046,16-33.032S1684.438,1013.242,1679.643,1032.493Z" transform="translate(-487.635 -593.761)" fill="#edac98"/><path d="M1822.731,1037.742c-.028,19.838-3.427,35.915-7.586,35.911s-7.522-16.1-7.5-35.932,3.425-35.917,7.586-35.911S1822.757,1017.9,1822.731,1037.742Z" transform="translate(-607.176 -598.688)" fill="#edac98"/><path d="M1632.16,1081.9c.3,18.078,15.621,70.245,15.621,70.245l8.5-1.238s-1.5-43.668-8.5-66.982l13.037-25.431.37,4.626,7.226,88.572h9.017s3.974-41.522,2.22-65.423c0,0,5.29-44.16.783-58.1-4.639-14.318-34.688.435-34.688.435S1631.953,1069.17,1632.16,1081.9Z" transform="translate(-464.156 -615.075)" fill="#02008a"/><path d="M1696.28,785.49c0,1.4.022,2.879.054,4.389.305,12.743,1.684,28.094,1.684,28.094s22.239-3.02,35.491,2.085c0,0,2.108-42.889.067-50.179-1.38-4.931-10.56-6.126-16.349-6.376a23.7,23.7,0,0,0-12.81,2.977c-3.531,2-7.031,5.181-7.712,10.1A71.132,71.132,0,0,0,1696.28,785.49Z" transform="translate(-516.414 -404.453)" fill="#4285f4"/><path d="M1696.28,882.165c0,1.4.022,2.879.054,4.389,2.1-1.586,5.618-4.454,5.618-4.454Z" transform="translate(-516.414 -501.128)" fill="#0a49ae"/><path d="M1745.918,646.686a24.98,24.98,0,0,1-7.164-8.95,16.066,16.066,0,0,1-.217-13.524c1.23-2.776,4.467-4.911,3.162-8.3-.727-1.895-4.517-.8-6.047-3.279s-2.961-3.789-2.842-6.558,1.676-8.016,11.877-6.741,13.942,7.031,15.254,14.027a22.513,22.513,0,0,0,2.9,6.77c.446.77.914,1.545,1.384,2.324,2.862,4.744,6.078,10.075,4.789,15.88C1766.865,648.022,1753.778,652.588,1745.918,646.686Z" transform="translate(-546.179 -270.524)" fill="#2a2a2a"/><path d="M1643.719,771.83s-8.882,4.544-25.405,12.057a.478.478,0,0,0-.259.585l4.175,12.612a.87.87,0,0,0,1.125.544l14.827-5.394Z" transform="translate(-452.643 -411.262)" fill="#4285f4"/><path d="M1787.05,1157.455l.379,4.617,8.475-18.722Z" transform="translate(-590.388 -714.038)" fill="#dbe7ee"/><path d="M37.3,1305.6c-.185.381-.411.6-.646.616-.074,0-.131.015-.22.015-6.772-.146-18.688-35.042-35.863-33.043-.185.015-.37.044-.555.059,0,0,16.324-7.771,24.55-3.516C37.334,1276.344,39.332,1301.352,37.3,1305.6Z" transform="translate(865.98 -815.994)" fill="#4285f4"/><path d="M39.749,1318.358c-.185.381-.411.6-.646.616-.074,0-.131.015-.22.015-6.772-.146-18.688-35.042-35.863-33.043,0,0,18.938-7.507,27.842,7.86a74.754,74.754,0,0,1,8.887,24.552Z" transform="translate(863.535 -828.754)" fill="#0a49ae"/><path d="M93.885,1339.842h-.026a.418.418,0,0,1-.389-.442c.033-.555,3.2-50.977-24.151-54.739a.415.415,0,0,1-.357-.468.405.405,0,0,1,.47-.357c28.114,3.867,24.9,55.061,24.869,55.616A.415.415,0,0,1,93.885,1339.842Z" transform="translate(809.797 -828.524)" fill="#070707"/><path d="M277.245,1337.842a.236.236,0,0,1-.059-.015c-17.351-2.631-29.4,32.527-36.23,32.984a1.066,1.066,0,0,1-.309,0,.532.532,0,0,1-.353-.185c-2.468-2.5-.866-29.383,12.458-36.267C260.729,1330.217,276.364,1337.415,277.245,1337.842Z" transform="translate(670.955 -868.66)" fill="#4285f4"/><path d="M281.452,1350.658c-17.351-2.631-29.4,32.527-36.23,32.984a1.083,1.083,0,0,1-.309,0,.533.533,0,0,1-.353-.185c1.175-6.082,3.331-18.459,10.506-27.269C264.725,1344.323,280.322,1350.26,281.452,1350.658Z" transform="translate(666.688 -881.491)" fill="#0a49ae"/><path d="M238.416,1404.344a.416.416,0,0,1-.416-.39c-.035-.555-3.245-51.75,24.869-55.618a.406.406,0,0,1,.47.357.414.414,0,0,1-.357.468c-27.35,3.764-24.184,54.191-24.151,54.739a.415.415,0,0,1-.379.435Z" transform="translate(672.139 -881.09)" fill="#070707"/><path d="M80.877,1091.323v.044a.978.978,0,0,1-.03.163l-.22-.185c-1.4-1.234-9.315-8.882-13.119-26.534-5.29-24.424-14.736-30.031-15.325-30.346a.046.046,0,0,0-.03-.015l-.544-.278c.185-.044.37-.074.544-.1,13.193-2.439,23.185,3.967,26.989,19.292C83.36,1070.358,81.156,1089.156,80.877,1091.323Z" transform="translate(823.936 -624.567)" fill="#4285f4"/><path d="M83.153,1095.35c-1.4-1.234-9.315-8.882-13.119-26.534-5.29-24.425-14.736-30.031-15.325-30.346.881.148,18.394,3.645,23.17,23.832A220.764,220.764,0,0,1,83.153,1095.35Z" transform="translate(821.41 -628.564)" fill="#0a49ae"/><path d="M121.971,1164.773h0a.415.415,0,0,1-.414-.416v-.3c.313-10.129,2.37-95.344-21.453-105.812a.414.414,0,0,1-.213-.555.42.42,0,0,1,.555-.213c23.819,10.464,22.463,89.979,21.949,106.6v.274a.414.414,0,0,1-.424.42Z" transform="translate(784.62 -644.026)" fill="#070707"/><path d="M262.326,1096.367l-.117.059-.457.22s-9.859,5.142-15.323,30.383c-4.1,18.938-12.915,26.358-13.341,26.682a5.617,5.617,0,0,1-.074-.6v-.015c-.426-3.516-2.248-21.333,1.763-37.538,3.849-15.5,14.046-21.877,27.459-19.188Z" transform="translate(676.735 -675.261)" fill="#4285f4"/><path d="M265.682,1099a.148.148,0,0,1-.028.059l-.457.22s-9.859,5.142-15.323,30.383c-4.1,18.938-12.915,26.358-13.341,26.682a5.621,5.621,0,0,1-.074-.6v-.015c2.764-24.632,7.14-36.833,11.1-44.4C252.445,1101.985,265.682,1099,265.682,1099Z" transform="translate(673.29 -677.895)" fill="#0a49ae"/><path d="M224.123,1216.487a.416.416,0,0,1-.416-.415c-.17-27.154,1.649-87.351,22.132-96.349a.417.417,0,0,1,.337.762c-20.017,8.8-21.8,68.594-21.629,95.581a.418.418,0,0,1-.414.42Z" transform="translate(683.691 -694.754)" fill="#070707"/><path d="M137.89,1581.64l.257,2.979,2.309,26.09a2.744,2.744,0,0,0,2.718,2.529l22.152.194a2.744,2.744,0,0,0,2.763-2.49l2.491-23.455v-.044l.585-5.51Z" transform="translate(753.621 -1071.229)" fill="#c09869"/><path d="M139.28,1590.577l2.309,26.09a2.744,2.744,0,0,0,2.718,2.529l10.547.093c-9.577-3.817-11.913-12.316-9.966-18.837,2.111-7.057,24.452-7.018,26.83-7h.205l-.205-.048-21.185-4.456Z" transform="translate(752.488 -1077.187)" fill="#ccab84"/><path d="M127.788,1587.234l35.157.309a1.09,1.09,0,0,0,1.1-1.081l.031-3.464a1.092,1.092,0,0,0-1.081-1.1l-35.157-.309a1.092,1.092,0,0,0-1.1,1.081l-.03,3.464a1.086,1.086,0,0,0,1.079,1.1Z" transform="translate(762.732 -1071.188)" fill="#c09869"/><g transform="translate(884.57 346.543)"><rect width="45.443" height="45.443" rx="12.24" fill="#0a49ae"/><path d="M160.149,741.49A14.311,14.311,0,1,0,174.461,755.8a14.31,14.31,0,0,0-14.312-14.311Zm0,23.668a9.357,9.357,0,1,1,9.359-9.358,9.357,9.357,0,0,1-9.359,9.358Z" transform="translate(-137.428 -733.078)" fill="#fff"/><path d="M237.5,755.8a14.247,14.247,0,0,1-4.071,9.992l-3.5-3.5a9.357,9.357,0,0,0-6.737-15.854V741.49A14.312,14.312,0,0,1,237.5,755.8Z" transform="translate(-200.466 -733.078)" fill="#79a7f1"/></g></g></svg>