<svg xmlns="http://www.w3.org/2000/svg" xmlns:xlink="http://www.w3.org/1999/xlink" width="18" height="18" viewBox="0 0 18 18"><defs><clipPath id="a"><rect width="18" height="18" fill="none" stroke="#ccab84" stroke-width="1"/></clipPath></defs><g clip-path="url(#a)"><path d="M17.851,5.578,9.829.62A.618.618,0,0,0,9.5.5" transform="translate(-0.5 -0.026)" fill="none" stroke="#ccab84" stroke-linecap="round" stroke-linejoin="round" stroke-width="1"/><path d="M12.474,8.588l-.122,7.635H6.3L6.177,8.588" transform="translate(-0.325 -0.452)" fill="none" stroke="#ccab84" stroke-linecap="round" stroke-linejoin="round" stroke-width="1"/><path d="M16.182,8.588l-.122,7.635H14.628l-.122-7.635" transform="translate(-0.763 -0.452)" fill="none" stroke="#ccab84" stroke-linecap="round" stroke-linejoin="round" stroke-width="1"/><line x1="0.122" y1="7.635" transform="translate(17.012 8.136)" fill="none" stroke="#ccab84" stroke-linecap="round" stroke-linejoin="round" stroke-width="1"/><path d="M17.182,16.647V18.4H.913V16.647" transform="translate(-0.048 -0.876)" fill="none" stroke="#ccab84" stroke-linecap="round" stroke-linejoin="round" stroke-width="1"/><line x2="2.001" y2="1.755" transform="translate(11.754 15.771)" fill="none" stroke="#ccab84" stroke-linecap="round" stroke-linejoin="round" stroke-width="1"/><path d="M.685,5.578,8.707.62A.618.618,0,0,1,9.036.5" transform="translate(-0.036 -0.026)" fill="none" stroke="#ccab84" stroke-linecap="round" stroke-linejoin="round" stroke-width="1"/><path d="M17.365,5.86H.688a.193.193,0,0,0-.188.2V8.444H17.553V6.06A.194.194,0,0,0,17.365,5.86Z" transform="translate(-0.026 -0.308)" fill="#ccab84" stroke="#ccab84" stroke-linecap="round" stroke-linejoin="round" stroke-width="1"/><path d="M8.144,16.435V12.617h2.569v3.818" transform="translate(-0.429 -0.664)" fill="none" stroke="#ccab84" stroke-linecap="round" stroke-linejoin="round" stroke-width="1"/><path d="M2.725,8.588l.122,7.635H4.278L4.4,8.588" transform="translate(-0.143 -0.452)" fill="none" stroke="#ccab84" stroke-linecap="round" stroke-linejoin="round" stroke-width="1"/><line y1="7.635" x2="0.122" transform="translate(0.866 8.136)" fill="none" stroke="#ccab84" stroke-linecap="round" stroke-linejoin="round" stroke-width="1"/><line x1="2.001" y2="1.755" transform="translate(4.245 15.771)" fill="none" stroke="#ccab84" stroke-linecap="round" stroke-linejoin="round" stroke-width="1"/><path d="M.988,5.32,8.9.465l8,4.855L.988,6Z" fill="#ccab84"/></g></svg>