<svg xmlns="http://www.w3.org/2000/svg" xmlns:xlink="http://www.w3.org/1999/xlink" width="18" height="18" viewBox="0 0 18 18"><defs><clipPath id="a"><rect width="18" height="18" fill="none" stroke="#ccab84" stroke-width="1"/></clipPath></defs><g transform="translate(0 0)"><g transform="translate(0 0)" clip-path="url(#a)"><ellipse cx="5.776" cy="5.775" rx="5.776" ry="5.775" transform="translate(5.974 5.972)" fill="#ccab84" stroke="#ccab84" stroke-linecap="round" stroke-linejoin="round" stroke-width="1"/><path d="M10.661,12.59A1.446,1.446,0,0,0,11.9,13.5h.825a1.369,1.369,0,0,0,0-2.725H11.9a1.308,1.308,0,0,1-1.237-1.362A1.309,1.309,0,0,1,11.9,8.048h.825a1.448,1.448,0,0,1,1.238.908" transform="translate(-0.561 0.346)" fill="none" stroke="#fff" stroke-linecap="round" stroke-linejoin="round" stroke-width="1"/><line y2="0.908" transform="translate(11.75 7.486)" fill="none" stroke="#fff" stroke-linecap="round" stroke-linejoin="round" stroke-width="1"/><line y2="0.908" transform="translate(11.75 13.845)" fill="none" stroke="#fff" stroke-linecap="round" stroke-linejoin="round" stroke-width="1"/><path d="M7.758,4.134H2.532V.8A.29.29,0,0,1,2.807.5H12.983a.29.29,0,0,1,.275.3v2.12" transform="translate(-0.133 0.021)" fill="none" stroke="#ccab84" stroke-linecap="round" stroke-linejoin="round" stroke-width="1"/><line y2="2.119" transform="translate(4.049 2.035)" fill="none" stroke="#ccab84" stroke-linecap="round" stroke-linejoin="round" stroke-width="1"/><line y2="2.119" transform="translate(6.25 2.035)" fill="none" stroke="#ccab84" stroke-linecap="round" stroke-linejoin="round" stroke-width="1"/><path d="M4.931,7.618H1.356a.29.29,0,0,1-.276-.3V4.286a.29.29,0,0,1,.276-.3h1.1" transform="translate(-0.057 0.171)" fill="none" stroke="#ccab84" stroke-linecap="round" stroke-linejoin="round" stroke-width="1"/><line y2="2.119" transform="translate(2.674 5.669)" fill="none" stroke="#ccab84" stroke-linecap="round" stroke-linejoin="round" stroke-width="1"/><line y2="2.119" transform="translate(4.874 5.669)" fill="none" stroke="#ccab84" stroke-linecap="round" stroke-linejoin="round" stroke-width="1"/><path d="M4.458,11.1H2.532V7.468" transform="translate(-0.133 0.321)" fill="none" stroke="#ccab84" stroke-linecap="round" stroke-linejoin="round" stroke-width="1"/><line y2="2.119" transform="translate(4.049 9.303)" fill="none" stroke="#ccab84" stroke-linecap="round" stroke-linejoin="round" stroke-width="1"/><path d="M5.176,14.586H.776a.29.29,0,0,1-.275-.3V11.254a.29.29,0,0,1,.275-.3h1.65" transform="translate(-0.026 0.471)" fill="none" stroke="#ccab84" stroke-linecap="round" stroke-linejoin="round" stroke-width="1"/><line y2="2.119" transform="translate(2.124 12.936)" fill="none" stroke="#ccab84" stroke-linecap="round" stroke-linejoin="round" stroke-width="1"/><line y2="2.119" transform="translate(4.324 12.936)" fill="none" stroke="#ccab84" stroke-linecap="round" stroke-linejoin="round" stroke-width="1"/></g></g></svg>