<svg xmlns="http://www.w3.org/2000/svg" width="19" height="19" viewBox="0 0 19 19"><g transform="translate(-127.5 -188.124)"><rect width="18" height="12.42" rx="1" transform="translate(128 192.588)" fill="none" stroke="#ccab84" stroke-miterlimit="10" stroke-width="1"/><path d="M21.465,1H15.808A.913.913,0,0,0,15,1.991V4.964h7.273V1.991A.913.913,0,0,0,21.465,1Z" transform="translate(118.5 187.624)" fill="none" stroke="#ccab84" stroke-miterlimit="10" stroke-width="1"/><g transform="translate(131 205.008)"><path d="M9.424,38.616H7.4a.4.4,0,0,1-.4-.4V37H9.829v1.212A.4.4,0,0,1,9.424,38.616Z" transform="translate(-7 -37)" fill="none" stroke="#ccab84" stroke-miterlimit="10" stroke-width="1"/><path d="M35.424,38.616H33.4a.4.4,0,0,1-.4-.4V37h2.829v1.212A.4.4,0,0,1,35.424,38.616Z" transform="translate(-23.082 -37)" fill="none" stroke="#ccab84" stroke-miterlimit="10" stroke-width="1"/></g><g transform="translate(128 196.492)"><path d="M2108,207.456h8.206" transform="translate(-2108 -205.566)" fill="none" stroke="#ccab84" stroke-width="1"/><path d="M2108,207.456h7.969" transform="translate(-2097.969 -205.566)" fill="none" stroke="#ccab84" stroke-width="1"/><g transform="translate(7.058)" fill="#fff" stroke="#ccab84" stroke-width="1"><rect width="4" height="4" rx="1" stroke="none"/><rect x="0.5" y="0.5" width="3" height="3" rx="0.5" fill="none"/></g><path d="M.425,1.89h7.14V3.258l.536.357H9.707s.75-.072.785-.357.214-1.367.214-1.367h7.319V7.9l-.893.571H.853L0,7.9V2.508Z" fill="#ccab84"/></g></g></svg>