<svg xmlns="http://www.w3.org/2000/svg" xmlns:xlink="http://www.w3.org/1999/xlink" width="18" height="18" viewBox="0 0 18 18"><defs><clipPath id="a"><rect width="18" height="18" fill="none" stroke="#ccab84" stroke-width="1"/></clipPath></defs><g clip-path="url(#a)"><path d="M8.381,14.276h3.912a1.068,1.068,0,0,0,.421-.086l3.713-1.6a1.024,1.024,0,0,1,.392-.094A.8.8,0,0,1,17.2,14l-3.309,1.926a3.557,3.557,0,0,1-1.787.482H4.473L1.732,18.184" transform="translate(-0.091 -0.658)" fill="none" stroke="#ccab84" stroke-linecap="round" stroke-linejoin="round" stroke-width="1"/><path d="M.5,14.572l4.141-2.45a4.563,4.563,0,0,1,3.141-.692,17.371,17.371,0,0,0,3.375.655h1.066a1.066,1.066,0,0,1,0,2.132" transform="translate(-0.026 -0.599)" fill="none" stroke="#ccab84" stroke-linecap="round" stroke-linejoin="round" stroke-width="1"/><path d="M14.868,12.579V7.25H17L10.25.5,3.5,7.25H5.632v3.908" transform="translate(-0.184 -0.026)" fill="none" stroke="#ccab84" stroke-linejoin="round" stroke-width="1"/><path d="M13.25,3.026V1.25h1.421v3.2" transform="translate(-0.697 -0.066)" fill="none" stroke="#ccab84" stroke-linejoin="round" stroke-width="1"/><path d="M9.125,11.506V9.125h2.842v2.842" transform="translate(-0.48 -0.48)" fill="none" stroke="#ccab84" stroke-linejoin="round" stroke-width="1"/><path d="M5.532,10.377l-.294-3.2H3.5L9.749.7H10.5l6.211,6.473H14.75V12.5l-1.536.523-.294-1.242-.883-.49h-.621V8.612H8.572V11H5.957Z" fill="#ccab84"/></g></svg>