<svg xmlns="http://www.w3.org/2000/svg" xmlns:xlink="http://www.w3.org/1999/xlink" width="18" height="17.999" viewBox="0 0 18 17.999"><defs><clipPath id="a"><rect width="18" height="17.999" fill="none" stroke="#ccab84" stroke-width="1"/></clipPath></defs><g transform="translate(0 0)"><g transform="translate(0 0)" clip-path="url(#a)"><line y1="4.959" transform="translate(13.632 12.245)" fill="none" stroke="#ccab84" stroke-linecap="round" stroke-linejoin="round" stroke-width="1"/><path d="M10.895,9.591a2.452,2.452,0,0,1-.108-.676,3.309,3.309,0,0,1,6.607-.308,3.1,3.1,0,0,1-.535,1.9" transform="translate(-0.568 -0.293)" fill="#ccab84" stroke="#ccab84" stroke-linecap="round" stroke-linejoin="round" stroke-width="1"/><path d="M11.561,9.613a1.706,1.706,0,0,0-1.041.429,2.256,2.256,0,0,0,2.587,3.667" transform="translate(-0.515 -0.506)" fill="#ccab84" stroke="#ccab84" stroke-linecap="round" stroke-linejoin="round" stroke-width="1"/><path d="M15.357,13.974a2.338,2.338,0,0,0,.6.105,2.286,2.286,0,0,0,1.523-4.068" transform="translate(-0.808 -0.527)" fill="#ccab84" stroke="#ccab84" stroke-linecap="round" stroke-linejoin="round" stroke-width="1"/><line y2="1.104" transform="translate(7.9 14.974)" fill="none" stroke="#ccab84" stroke-linecap="round" stroke-linejoin="round" stroke-width="1"/><line x1="4.027" transform="translate(7.421 14.947)" fill="none" stroke="#ccab84" stroke-linecap="round" stroke-linejoin="round" stroke-width="1"/><line x2="4.503" transform="translate(7.183 16.153)" fill="none" stroke="#ccab84" stroke-linecap="round" stroke-linejoin="round" stroke-width="1"/><line y2="1.104" transform="translate(10.969 14.974)" fill="none" stroke="#ccab84" stroke-linecap="round" stroke-linejoin="round" stroke-width="1"/><line y1="1.002" transform="translate(8.043 16.202)" fill="none" stroke="#ccab84" stroke-linecap="round" stroke-linejoin="round" stroke-width="1"/><line y2="1.002" transform="translate(10.826 16.202)" fill="none" stroke="#ccab84" stroke-linecap="round" stroke-linejoin="round" stroke-width="1"/><path d="M8.806,11.7C3.659,11.7.621,15.564.5,17.82v.321" transform="translate(-0.026 -0.616)" fill="none" stroke="#ccab84" stroke-linecap="round" stroke-linejoin="round" stroke-width="1"/><path d="M3.928,13.255c2.34,1.255.639,4.205,1.549,4.942" transform="translate(-0.207 -0.698)" fill="none" stroke="#ccab84" stroke-linecap="round" stroke-linejoin="round" stroke-width="1"/><path d="M7.757,8.407V.5H1.846V11.545" transform="translate(-0.097 -0.027)" fill="none" stroke="#ccab84" stroke-linecap="round" stroke-linejoin="round" stroke-width="1"/><line x1="0.98" transform="translate(3.068 2.12)" fill="none" stroke="#ccab84" stroke-linecap="round" stroke-linejoin="round" stroke-width="1"/><line x1="0.98" transform="translate(3.068 4.071)" fill="none" stroke="#ccab84" stroke-linecap="round" stroke-linejoin="round" stroke-width="1"/><line x1="0.98" transform="translate(3.068 6.022)" fill="none" stroke="#ccab84" stroke-linecap="round" stroke-linejoin="round" stroke-width="1"/><line x1="0.98" transform="translate(5.432 2.12)" fill="none" stroke="#ccab84" stroke-linecap="round" stroke-linejoin="round" stroke-width="1"/><line x1="0.98" transform="translate(5.432 4.071)" fill="none" stroke="#ccab84" stroke-linecap="round" stroke-linejoin="round" stroke-width="1"/><line x1="0.98" transform="translate(5.432 6.022)" fill="none" stroke="#ccab84" stroke-linecap="round" stroke-linejoin="round" stroke-width="1"/><line x1="0.98" transform="translate(3.068 7.973)" fill="none" stroke="#ccab84" stroke-linecap="round" stroke-linejoin="round" stroke-width="1"/><path d="M10.12,1.973h2.5v2.2" transform="translate(-1.12 -0.104)" fill="none" stroke="#ccab84" stroke-linecap="round" stroke-linejoin="round" stroke-width="1"/><path d="M2.2,14.717s.843.411.722,1.855.012,1.652.012,1.652" transform="translate(-0.116 -0.775)" fill="none" stroke="#ccab84" stroke-linecap="round" stroke-linejoin="round" stroke-width="1"/><line y1="0.091" x2="16.38" transform="translate(0.474 17.434)" fill="none" stroke="#ccab84" stroke-linecap="round" stroke-linejoin="round" stroke-width="1"/><path d="M11.763,8.3l2.625.1s1.112.262,1.162.3a16.192,16.192,0,0,1,.975,1.55c0,.087.025.937,0,1.15a7.661,7.661,0,0,1-.4,1.388c-.112.188-.437.675-.663.725a6.949,6.949,0,0,1-1.288-.175l-1.85-.175.825-.312.425.25s-2.213-.025-2.363-.312-.3-.225-.387-.863a14.054,14.054,0,0,1-.138-1.675,2.54,2.54,0,0,1,.063-.875,1.482,1.482,0,0,1,.325-.538C11.237,8.688,11.763,8.3,11.763,8.3Z" fill="#ccab84"/></g></g></svg>