<svg xmlns="http://www.w3.org/2000/svg" width="19" height="19" viewBox="0 0 19 19"><g transform="translate(-7.5 -111.03)"><path d="M1,0H3.5a1,1,0,0,1,1,1V7a0,0,0,0,1,0,0H0A0,0,0,0,1,0,7V1A1,1,0,0,1,1,0Z" transform="translate(8 122.53)" fill="#ccab84" stroke="#ccab84" stroke-linejoin="bevel" stroke-width="1"/><path d="M1,0H3.5a1,1,0,0,1,1,1V11a0,0,0,0,1,0,0H0a0,0,0,0,1,0,0V1A1,1,0,0,1,1,0Z" transform="translate(14.75 118.53)" fill="#ccab84" stroke="#ccab84" stroke-linejoin="bevel" stroke-width="1"/><path d="M1,0H3.5a1,1,0,0,1,1,1V18a0,0,0,0,1,0,0H0a0,0,0,0,1,0,0V1A1,1,0,0,1,1,0Z" transform="translate(21.5 111.53)" fill="none" stroke="#ccab84" stroke-linejoin="bevel" stroke-width="1"/></g></svg>