<svg xmlns="http://www.w3.org/2000/svg" xmlns:xlink="http://www.w3.org/1999/xlink" width="18" height="18" viewBox="0 0 18 18"><defs><clipPath id="a"><rect width="18" height="18" fill="none" stroke="#ccab84" stroke-width="1"/></clipPath></defs><g clip-path="url(#a)"><path d="M10.186,7.07l1.193-1.231a3.9,3.9,0,0,1-.28-.745,3.724,3.724,0,0,1,.917-3.526A3.47,3.47,0,0,1,16.047.854L14,2.957l1.673,1.724,2.04-2.105a3.735,3.735,0,0,1-.693,4.155,3.471,3.471,0,0,1-3.421.945,3.678,3.678,0,0,1-.723-.289L11.689,8.619" transform="translate(-0.536 -0.026)" fill="none" stroke="#ccab84" stroke-linecap="round" stroke-linejoin="round" stroke-width="1"/><path d="M6.785,10.615,1.358,16.206a.87.87,0,0,0,0,1.2l.337.347a.808.808,0,0,0,1.166,0l5.427-5.591" transform="translate(-0.059 -0.559)" fill="none" stroke="#ccab84" stroke-linecap="round" stroke-linejoin="round" stroke-width="1"/><path d="M14.4,12.845l2.7,2.781a1.217,1.217,0,0,1,0,1.683l-.423.435a1.132,1.132,0,0,1-1.633,0l-2.7-2.781-1.336.24-.686-1.558,2.8-2.881,1.512.706Z" transform="translate(-0.544 -0.567)" fill="#ccab84" stroke="#ccab84" stroke-linecap="round" stroke-linejoin="round" stroke-width="1"/><path d="M10.609,12.29l-6.691-6.9L2.71,5.216.5,1.842,1.671.635,4.944,2.914l.173,1.242,6.691,6.9" transform="translate(-0.026 -0.033)" fill="#ccab84" stroke="#ccab84" stroke-linecap="round" stroke-linejoin="round" stroke-width="1"/></g></svg>