<svg xmlns="http://www.w3.org/2000/svg" xmlns:xlink="http://www.w3.org/1999/xlink" width="18" height="18" viewBox="0 0 18 18"><defs><clipPath id="a"><rect width="18" height="18" fill="none" stroke="#4285f4" stroke-width="1"/></clipPath></defs><line x1="0.29" transform="translate(8.993 9)" fill="none" stroke="#4285f4" stroke-linecap="round" stroke-linejoin="round" stroke-width="1"/><line x1="5.806" transform="translate(9.952 9)" fill="none" stroke="#4285f4" stroke-linecap="round" stroke-linejoin="round" stroke-width="1"/><path d="M15.539,13.8l-1.1-1.1H12.694l-1.161-1.162" transform="translate(-0.769 -0.689)" fill="none" stroke="#4285f4" stroke-linecap="round" stroke-linejoin="round" stroke-width="1"/><g clip-path="url(#a)"><circle cx="0.825" cy="0.825" r="0.825" transform="translate(14.501 12.851)" fill="none" stroke="#4285f4" stroke-linecap="round" stroke-linejoin="round" stroke-width="1"/><circle cx="0.825" cy="0.825" r="0.825" transform="translate(15.876 8.175)" fill="none" stroke="#4285f4" stroke-linecap="round" stroke-linejoin="round" stroke-width="1"/><circle cx="0.825" cy="0.825" r="0.825" transform="translate(10.65 15.876)" fill="none" stroke="#4285f4" stroke-linecap="round" stroke-linejoin="round" stroke-width="1"/><path d="M15.328,5.2,14.283,6.248h-1.65l-1.1,1.1" transform="translate(-0.607 -0.274)" fill="none" stroke="#4285f4" stroke-linecap="round" stroke-linejoin="round" stroke-width="1"/><circle cx="0.825" cy="0.825" r="0.825" transform="translate(14.501 3.499)" fill="none" stroke="#4285f4" stroke-linecap="round" stroke-linejoin="round" stroke-width="1"/><circle cx="0.825" cy="0.825" r="0.825" transform="translate(10.65 0.474)" fill="none" stroke="#4285f4" stroke-linecap="round" stroke-linejoin="round" stroke-width="1"/><path d="M10.661,14.436h1.376v2.2" transform="translate(-0.561 -0.76)" fill="none" stroke="#4285f4" stroke-linecap="round" stroke-linejoin="round" stroke-width="1"/><path d="M9.24,4.564a4.676,4.676,0,0,0,0,9.352" transform="translate(-0.24 -0.24)" fill="none" stroke="#4285f4" stroke-linecap="round" stroke-linejoin="round" stroke-width="1"/><path d="M12.036,2.242v2.2H10.661" transform="translate(-0.561 -0.118)" fill="none" stroke="#4285f4" stroke-linecap="round" stroke-linejoin="round" stroke-width="1"/><path d="M9.026,17.553a8.612,8.612,0,0,1-1.65-.161V16.266a7.393,7.393,0,0,1-2.3-.954l-.1.1-.7.7a8.58,8.58,0,0,1-2.334-2.334l.7-.7.1-.1a7.393,7.393,0,0,1-.954-2.3H.661a8.536,8.536,0,0,1,0-3.3H1.787a7.393,7.393,0,0,1,.954-2.3l-.1-.1-.7-.7A8.58,8.58,0,0,1,4.278,1.944l.7.7.1.1a7.4,7.4,0,0,1,2.3-.954V.661A8.612,8.612,0,0,1,9.026.5" transform="translate(-0.026 -0.026)" fill="none" stroke="#4285f4" stroke-linecap="round" stroke-linejoin="round" stroke-width="1"/><path d="M9.393,11.318a1.926,1.926,0,0,1,0-3.851" transform="translate(-0.393 -0.393)" fill="none" stroke="#4285f4" stroke-linecap="round" stroke-linejoin="round" stroke-width="1"/></g></svg>